<mxfile host="app.diagrams.net" agent="Mozilla/5.0 (Macintosh; Intel Mac OS X 10_15_7) AppleWebKit/537.36 (KHTML, like Gecko) Chrome/127.0.0.0 Safari/537.36" version="24.7.16">
  <diagram name="Page-1" id="c4acf3e9-155e-7222-9cf6-157b1a14988f">
    <mxGraphModel dx="1366" dy="896" grid="1" gridSize="10" guides="1" tooltips="1" connect="1" arrows="1" fold="1" page="1" pageScale="1" pageWidth="850" pageHeight="1100" background="none" math="0" shadow="0">
      <root>
        <mxCell id="0" />
        <mxCell id="1" parent="0" />
        <mxCell id="W0FhQvkQdP38nWK54L3v-1" value="&lt;font style=&quot;font-size: 25px;&quot;&gt;News Database&lt;/font&gt;" style="shape=datastore;whiteSpace=wrap;html=1;" vertex="1" parent="1">
          <mxGeometry x="320" y="820" width="210" height="180" as="geometry" />
        </mxCell>
        <mxCell id="W0FhQvkQdP38nWK54L3v-20" style="edgeStyle=orthogonalEdgeStyle;rounded=0;orthogonalLoop=1;jettySize=auto;html=1;exitX=0.5;exitY=1;exitDx=0;exitDy=0;strokeWidth=6;" edge="1" parent="1" source="W0FhQvkQdP38nWK54L3v-2" target="W0FhQvkQdP38nWK54L3v-1">
          <mxGeometry relative="1" as="geometry" />
        </mxCell>
        <mxCell id="W0FhQvkQdP38nWK54L3v-2" value="&lt;font style=&quot;font-size: 25px;&quot;&gt;Loading Layer&lt;/font&gt;" style="rounded=0;whiteSpace=wrap;html=1;" vertex="1" parent="1">
          <mxGeometry x="80" y="700" width="690" height="60" as="geometry" />
        </mxCell>
        <mxCell id="W0FhQvkQdP38nWK54L3v-19" style="edgeStyle=orthogonalEdgeStyle;rounded=0;orthogonalLoop=1;jettySize=auto;html=1;exitX=0.5;exitY=1;exitDx=0;exitDy=0;entryX=0.5;entryY=0;entryDx=0;entryDy=0;strokeWidth=5;" edge="1" parent="1" source="W0FhQvkQdP38nWK54L3v-3" target="W0FhQvkQdP38nWK54L3v-2">
          <mxGeometry relative="1" as="geometry" />
        </mxCell>
        <mxCell id="W0FhQvkQdP38nWK54L3v-3" value="&lt;font style=&quot;font-size: 25px;&quot;&gt;Transformating Layer&lt;/font&gt;" style="rounded=0;whiteSpace=wrap;html=1;" vertex="1" parent="1">
          <mxGeometry x="80" y="600" width="690" height="60" as="geometry" />
        </mxCell>
        <mxCell id="W0FhQvkQdP38nWK54L3v-18" style="edgeStyle=orthogonalEdgeStyle;rounded=0;orthogonalLoop=1;jettySize=auto;html=1;exitX=0.5;exitY=1;exitDx=0;exitDy=0;entryX=0.5;entryY=0;entryDx=0;entryDy=0;strokeWidth=5;" edge="1" parent="1" source="W0FhQvkQdP38nWK54L3v-4" target="W0FhQvkQdP38nWK54L3v-3">
          <mxGeometry relative="1" as="geometry" />
        </mxCell>
        <mxCell id="W0FhQvkQdP38nWK54L3v-4" value="&lt;font style=&quot;font-size: 25px;&quot;&gt;API Handler Layer&lt;/font&gt;" style="rounded=0;whiteSpace=wrap;html=1;" vertex="1" parent="1">
          <mxGeometry x="80" y="500" width="690" height="60" as="geometry" />
        </mxCell>
        <mxCell id="W0FhQvkQdP38nWK54L3v-10" value="" style="group;" vertex="1" connectable="0" parent="1">
          <mxGeometry x="105" y="360" width="670" height="97.5" as="geometry" />
        </mxCell>
        <mxCell id="W0FhQvkQdP38nWK54L3v-11" value="" style="rounded=0;whiteSpace=wrap;html=1;" vertex="1" parent="W0FhQvkQdP38nWK54L3v-10">
          <mxGeometry x="-22" y="-37.5" width="685" height="135" as="geometry" />
        </mxCell>
        <mxCell id="W0FhQvkQdP38nWK54L3v-5" value="&lt;font style=&quot;font-size: 15px;&quot;&gt;New York Times&lt;/font&gt;" style="rounded=0;whiteSpace=wrap;html=1;" vertex="1" parent="W0FhQvkQdP38nWK54L3v-10">
          <mxGeometry x="130" width="120" height="60" as="geometry" />
        </mxCell>
        <mxCell id="W0FhQvkQdP38nWK54L3v-6" value="&lt;font style=&quot;font-size: 15px;&quot;&gt;BBC&lt;/font&gt;" style="rounded=0;whiteSpace=wrap;html=1;" vertex="1" parent="W0FhQvkQdP38nWK54L3v-10">
          <mxGeometry x="260" width="120" height="60" as="geometry" />
        </mxCell>
        <mxCell id="W0FhQvkQdP38nWK54L3v-7" value="&lt;font style=&quot;font-size: 15px;&quot;&gt;The Guardian&lt;/font&gt;" style="rounded=0;whiteSpace=wrap;html=1;" vertex="1" parent="W0FhQvkQdP38nWK54L3v-10">
          <mxGeometry x="390" width="120" height="60" as="geometry" />
        </mxCell>
        <mxCell id="W0FhQvkQdP38nWK54L3v-8" value="&lt;font style=&quot;font-size: 15px;&quot;&gt;Reuters&lt;/font&gt;" style="rounded=0;whiteSpace=wrap;html=1;" vertex="1" parent="W0FhQvkQdP38nWK54L3v-10">
          <mxGeometry x="520" width="120" height="60" as="geometry" />
        </mxCell>
        <mxCell id="W0FhQvkQdP38nWK54L3v-9" value="&lt;font style=&quot;font-size: 15px;&quot;&gt;Bloomberg&lt;/font&gt;" style="rounded=0;whiteSpace=wrap;html=1;" vertex="1" parent="W0FhQvkQdP38nWK54L3v-10">
          <mxGeometry width="120" height="60" as="geometry" />
        </mxCell>
        <mxCell id="W0FhQvkQdP38nWK54L3v-16" style="edgeStyle=orthogonalEdgeStyle;rounded=0;orthogonalLoop=1;jettySize=auto;html=1;exitX=0.5;exitY=1;exitDx=0;exitDy=0;entryX=0.5;entryY=0;entryDx=0;entryDy=0;strokeWidth=5;" edge="1" parent="1" source="W0FhQvkQdP38nWK54L3v-11" target="W0FhQvkQdP38nWK54L3v-4">
          <mxGeometry relative="1" as="geometry" />
        </mxCell>
        <mxCell id="W0FhQvkQdP38nWK54L3v-12" value="&lt;font style=&quot;font-size: 20px;&quot;&gt;The Five API&#39;s&lt;/font&gt;" style="rounded=0;whiteSpace=wrap;html=1;fillColor=default;" vertex="1" parent="1">
          <mxGeometry x="349" y="300" width="151" height="37" as="geometry" />
        </mxCell>
      </root>
    </mxGraphModel>
  </diagram>
</mxfile>
